PathFileType	4	(X/Y/Z)	C:\Users\Biomechanik\SynologyDrive\AlexP\Athlete_03\Athlete_3_25_03_31\Squat_bw_03\marker_experimental.trc
DataRate	CameraRate	NumFrames	NumMarkers	Units	OrigDataRate	OrigDataStartFrame	OrigNumFrames
200.000000	200.000000	4	55	mm	200.000000	476	544
Frame#	Time	BL			BR			GLAB			RFHD			LFHD			C7			T6			SPINMOL			SPINM2			SPINM3			T12			BELTOL			BELT2			BELT3			SACROL			SACR2			SACR3			LTHOL			LTH2			LTH3			LSHAOL			LSHA2			LSHA3			LHEE			LTOE			LM5			RTHOL			RTH2			RTH3			RSHAOL			RSHA2			RSHA3			RHEE			RTOE			RM5			STRN			XIPH			LACR			LUAOL			LUA2			LUA3			LLAOL			LLA2			LLA3			LWRR			LWRU			RACR			RUAOL			RUA2			RUA3			RLAOL			RLA2			RLA3			RWRR			RWRU			
		X1	Y1	Z1	X2	Y2	Z2	X3	Y3	Z3	X4	Y4	Z4	X5	Y5	Z5	X6	Y6	Z6	X7	Y7	Z7	X8	Y8	Z8	X9	Y9	Z9	X10	Y10	Z10	X11	Y11	Z11	X12	Y12	Z12	X13	Y13	Z13	X14	Y14	Z14	X15	Y15	Z15	X16	Y16	Z16	X17	Y17	Z17	X18	Y18	Z18	X19	Y19	Z19	X20	Y20	Z20	X21	Y21	Z21	X22	Y22	Z22	X23	Y23	Z23	X24	Y24	Z24	X25	Y25	Z25	X26	Y26	Z26	X27	Y27	Z27	X28	Y28	Z28	X29	Y29	Z29	X30	Y30	Z30	X31	Y31	Z31	X32	Y32	Z32	X33	Y33	Z33	X34	Y34	Z34	X35	Y35	Z35	X36	Y36	Z36	X37	Y37	Z37	X38	Y38	Z38	X39	Y39	Z39	X40	Y40	Z40	X41	Y41	Z41	X42	Y42	Z42	X43	Y43	Z43	X44	Y44	Z44	X45	Y45	Z45	X46	Y46	Z46	X47	Y47	Z47	X48	Y48	Z48	X49	Y49	Z49	X50	Y50	Z50	X51	Y51	Z51	X52	Y52	Z52	X53	Y53	Z53	X54	Y54	Z54	X55	Y55	Z55	

477	2.38	960.7110595703125	36.19793319702161	-1933.5234375	1063.181274414062	32.89234924316406	86.64910125732422	466.7314147949219	1556.605590820312	-1185.610107421875	416.0101623535156	1580.75439453125	-1122.29345703125	421.4376220703125	1577.96484375	-1257.181640625	225.7137145996094	1408.64453125	-1187.558349609375	140.0807037353516	1263.297973632812	-1194.424682617188	129.5994567871094	1233.619506835938	-1217.222412109375	120.9446182250977	1224.40771484375	-1168.661010742188	111.4937973022461	1170.930297851562	-1206.35595703125	98.46585083007812	1113.017700195312	-1208.028442382812	66.57869720458984	1097.580078125	-1224.818603515625	66.06524658203125	1094.02392578125	-1174.359130859375	40.72774124145508	1039.900634765625	-1204.8056640625	14.31477355957031	947.7403564453126	-1229.67041015625	14.37101936340332	944.5260009765626	-1178.226806640625	-0.7688595056533813	886.9571533203126	-1207.361572265625	112.8812942504883	669.2092285156251	-1432.00830078125	91.00287628173828	596.9804687500001	-1407.039794921875	128.9626312255859	610.2308959960939	-1437.564086914062	139.7777862548828	335.4057617187501	-1524.047973632812	100.4856643676758	268.1999816894532	-1507.149291992188	145.8688354492188	273.7549133300782	-1529.142211914062	113.0653610229492	69.86216735839852	-1472.03955078125	316.4623107910156	51.00390243530283	-1549.704345703125	238.5176391601562	26.78597831726084	-1627.445190429688	91.99447631835938	671.5059204101564	-987.6176147460938	146.5821228027344	640.9612426757814	-937.662353515625	117.327392578125	617.3240966796876	-970.004638671875	112.6255569458008	350.1852722167969	-899.1064453125	139.21630859375	281.1633911132813	-872.7302856445312	102.1402053833008	288.9116210937501	-904.70263671875	91.475341796875	62.51673126220709	-964.2103271484375	285.3711242675781	48.54575347900396	-874.6937255859375	199.2086486816406	37.92173767089849	-801.06884765625	383.7965393066406	1292.272827148438	-1196.306884765625	377.1101379394531	1143.186279296875	-1196.074096679688	275.5308837890625	1377.058227539062	-1353.3486328125	199.560791015625	1279.463500976562	-1471.536376953125	160.8246612548828	1229.037231445312	-1489.806762695312	200.9239501953125	1236.883544921875	-1520.742431640625	227.0349578857422	1189.629272460938	-1615.643798828125	305.5917663574219	1187.699951171875	-1625.616821289062	275.9288024902344	1227.27685546875	-1615.086791992188	344.1977844238281	1305.07373046875	-1608.726928710938	344.5230102539062	1300.187133789062	-1531.08447265625	284.7371215820312	1376.599243164062	-1041.783447265625	214.3823547363281	1279.171264648438	-926.9724121093749	207.1896820068359	1237.560913085938	-876.4379882812499	178.6214599609375	1225.044799804688	-918.1975097656249	251.0618286132812	1207.091186523438	-770.4455566406249	251.598388671875	1285.099609375	-785.9395751953124	290.2681884765625	1256.068481445312	-772.7479858398436	328.1410827636719	1340.550170898438	-791.5618286132811	332.6368408203125	1333.11181640625	-868.9785156249999	
478	2.385	960.7105102539062	36.19869232177746	-1933.523681640625	1063.181030273438	32.89180755615234	86.64913940429688	465.56982421875	1558.659423828125	-1185.5498046875	414.8588562011719	1582.775634765625	-1122.227905273438	420.2668762207031	1580.034057617188	-1257.111694335938	224.6494903564453	1410.286499023438	-1187.499755859375	139.5921478271484	1264.463500976562	-1194.392456054688	129.1859588623047	1234.727416992188	-1217.185180664062	120.5830459594727	1225.464599609375	-1168.616333007812	111.4116439819336	1171.942749023438	-1206.30126953125	98.68202209472656	1113.97900390625	-1207.963623046875	66.94042205810547	1098.407470703125	-1224.734252929688	66.47533416748047	1094.84423828125	-1174.274291992188	41.37636184692383	1040.60693359375	-1204.706665039062	15.32340812683105	948.8296508789064	-1229.494384765625	15.3988561630249	945.6226806640626	-1178.051391601562	0.285123348236084	888.0397949218751	-1207.173095703125	112.2764663696289	670.1548461914064	-1430.916748046875	89.94209289550781	598.2611694335939	-1405.400024414062	127.840690612793	611.0061035156251	-1436.154541015625	138.2486877441406	335.3184204101564	-1522.579711914062	99.35287475585938	267.8159179687501	-1505.958618164062	144.6623229980469	273.7317504882814	-1528.00341796875	113.0389556884766	69.82340240478524	-1472.027587890625	316.4601745605469	51.025001525879	-1549.702026367188	238.5176086425781	26.79397583007822	-1627.44189453125	91.75354766845703	672.6458129882814	-988.5670776367188	146.1360015869141	641.3815307617189	-938.8270263671875	116.6119537353516	618.1619262695314	-971.2431640625	111.2715148925781	350.1621093750001	-900.4979248046875	138.1812744140625	281.3652038574219	-873.8177490234375	101.0843505859375	288.8162536621094	-905.8546142578125	91.43691253662109	62.45767974853521	-964.152587890625	285.3546142578125	48.54132843017584	-874.6763305664062	199.1974792480469	37.91093444824224	-801.0506591796875	383.2062072753906	1294.55712890625	-1196.316284179688	377.1043395996094	1145.44091796875	-1196.1025390625	274.5002136230469	1378.932983398438	-1353.318969726562	199.0381011962891	1280.944946289062	-1471.515625	160.5367584228516	1230.33984375	-1489.785888671875	200.5802154541016	1238.369873046875	-1520.726684570312	226.9831390380859	1191.183227539062	-1615.589233398438	305.5537414550781	1189.60693359375	-1625.518188476562	275.7053527832031	1229.05224609375	-1615.023559570312	343.6137390136719	1307.1630859375	-1608.66357421875	343.9344787597656	1302.319580078125	-1531.022338867188	283.8201293945312	1378.491333007812	-1041.783569335938	213.9804840087891	1280.76953125	-926.9296874999999	207.0301971435547	1239.13330078125	-876.3859863281249	178.4672088623047	1226.4912109375	-918.1060180664061	251.1829071044922	1208.839477539062	-770.4242553710936	251.3960571289062	1286.84619140625	-785.9239501953124	290.1880493164062	1257.963745117188	-772.7829589843749	327.6836547851562	1342.603149414062	-791.6412353515624	332.1347351074219	1335.173461914062	-869.0631713867186	
479	2.39	960.7100219726562	36.19945144653332	-1933.523803710938	1063.1806640625	32.89136886596679	86.64916229248047	464.4064025878906	1560.585693359375	-1185.484497070312	413.7040100097656	1584.667724609375	-1122.156860351562	419.0960388183594	1581.977416992188	-1257.037231445312	223.5950012207031	1411.802124023438	-1187.4501953125	139.1102905273438	1265.507446289062	-1194.37060546875	128.7741394042969	1235.7177734375	-1217.158447265625	120.2234344482422	1226.405395507812	-1168.582885742188	111.3240051269531	1172.842041015625	-1206.258422851562	98.89728546142578	1114.832153320312	-1207.91259765625	67.30009460449219	1099.125610351562	-1224.662475585938	66.88351440429688	1095.557373046875	-1174.202392578125	42.02081298828125	1041.207885742188	-1204.620483398438	16.30515670776367	949.7916259765626	-1229.336791992188	16.39862251281738	946.5961303710939	-1177.893920898438	1.327562689781189	888.9931030273439	-1206.9990234375	111.681266784668	671.0170288085939	-1429.849975585938	88.92061614990234	599.4587402343751	-1403.798583984375	126.7442398071289	611.7112426757814	-1434.781494140625	136.7673797607422	335.2062988281251	-1521.155029296875	98.25788879394531	267.418182373047	-1504.805297851562	143.4935302734375	273.6846923828126	-1526.899536132812	113.0124588012695	69.77557373046884	-1472.012573242188	316.4563903808594	51.04679107666025	-1549.700317382812	238.516845703125	26.80111122131358	-1627.438842773438	91.50695037841797	673.7211914062501	-989.5018920898438	145.6748199462891	641.7587280273439	-939.9664916992188	115.8914184570312	618.9497680664064	-972.4553833007812	109.9398651123047	350.1184082031251	-901.8595581054688	137.1598510742188	281.5439147949219	-874.8848266601562	100.0479507446289	288.7042846679688	-906.9868774414062	91.39961242675781	62.40269470214849	-964.1014404296875	285.3365173339844	48.53606796264654	-874.65673828125	199.1843719482422	37.89827728271489	-801.0291137695312	382.619384765625	1296.701904296875	-1196.326782226562	377.0924377441406	1147.560791015625	-1196.131469726562	273.4910888671875	1380.673950195312	-1353.300048828125	198.5201873779297	1282.305541992188	-1471.503173828125	160.2478332519531	1231.529663085938	-1489.771850585938	200.2344970703125	1239.7333984375	-1520.718994140625	226.9279479980469	1192.616821289062	-1615.537231445312	305.5113830566406	1191.383911132812	-1625.41796875	275.4828796386719	1230.700439453125	-1614.959350585938	343.038330078125	1309.115112304688	-1608.591430664062	343.352783203125	1304.306884765625	-1530.951538085938	282.9129943847656	1380.251586914062	-1041.782348632812	213.5825805664062	1282.244873046875	-926.8898925781249	206.8710479736328	1240.587768554688	-876.3317871093749	178.3138122558594	1227.818237304688	-918.0135498046874	251.3022003173828	1210.471923828125	-770.4025268554686	251.1968688964844	1288.475708007812	-785.9118041992186	290.1104736328125	1259.738037109375	-772.8187866210936	327.2343139648438	1344.53125	-791.7255859374999	331.6445007324219	1337.102783203125	-869.1522827148436	
480	2.395	960.7095336914062	36.20018386840832	-1933.523803710938	1063.180419921875	32.89101791381835	86.64913177490234	463.2410888671875	1562.387939453125	-1185.414184570312	412.5451049804688	1586.43359375	-1122.080932617188	417.9251708984375	1583.7978515625	-1256.958618164062	222.5521392822266	1413.194213867188	-1187.409423828125	138.635986328125	1266.433349609375	-1194.359130859375	128.3645935058594	1236.5947265625	-1217.14208984375	119.8662490844727	1227.234375	-1168.560791015625	111.2303619384766	1173.632080078125	-1206.227905273438	99.11179351806641	1115.58154296875	-1207.876342773438	67.65745544433594	1099.739135742188	-1224.604614257812	67.28903961181641	1096.168334960938	-1174.145141601562	42.65951156616211	1041.708740234375	-1204.548583984375	17.25745010375977	950.6281738281251	-1229.200317382812	17.36747550964355	947.4479370117189	-1177.756958007812	2.35449743270874	889.8192138671876	-1206.842407226562	111.1013488769531	671.7965087890626	-1428.810424804688	87.94155120849609	600.5718383789064	-1402.242553710938	125.6800231933594	612.3463745117189	-1433.448486328125	135.3398284912109	335.0731201171876	-1519.776733398438	97.20471954345703	267.0114746093751	-1503.691040039062	142.3666687011719	273.6170043945314	-1525.832397460938	112.9853286743164	69.71852874755868	-1471.9951171875	316.4510498046875	51.0689239501954	-1549.699462890625	238.5154266357422	26.8072338104249	-1627.436157226562	91.25662994384766	674.7340087890626	-990.421142578125	145.2031402587891	642.0952758789064	-941.0811157226562	115.1686782836914	619.6898193359376	-973.6407470703125	108.6367797851562	350.0562438964844	-903.1904907226562	136.1556396484375	281.7012634277344	-875.9286499023438	99.03604125976562	288.5777587890626	-908.0982666015625	91.36220550537109	62.35301208496099	-964.057373046875	285.3176879882812	48.52997207641607	-874.6358032226562	199.1698303222656	37.88435363769536	-801.0050659179688	382.0367431640625	1298.707763671875	-1196.33935546875	377.0746459960938	1149.546630859375	-1196.161010742188	272.5042724609375	1382.282836914062	-1353.29248046875	198.005615234375	1283.54736328125	-1471.499755859375	159.9562835693359	1232.60888671875	-1489.765625	199.8867492675781	1240.976196289062	-1520.719482421875	226.8679504394531	1193.931762695312	-1615.488525390625	305.4633178710938	1193.031982421875	-1625.317749023438	275.2603454589844	1232.22265625	-1614.895385742188	342.4710998535156	1310.931274414062	-1608.512451171875	342.7786254882812	1306.149780273438	-1530.8740234375	282.0175476074219	1381.88134765625	-1041.779541015625	213.1884460449219	1283.59814453125	-926.8539428710936	206.7112121582031	1241.925903320312	-876.2764282226561	178.1605682373047	1229.02734375	-917.9213256835936	251.4175567626953	1211.989013671875	-770.3810424804686	250.9989776611328	1289.989013671875	-785.9037475585936	290.03369140625	1261.391967773438	-772.8554077148436	326.7920837402344	1346.335083007812	-791.8142700195311	331.1661682128906	1338.900390625	-869.2453002929686	
